<svg xmlns="http://www.w3.org/2000/svg" width="172" height="50" viewBox="0 0 172 50" fill="none"><g clip-path="url(#clip0_430_312)"><path d="M64.6167 32.0176C61.9851 32.0176 59.6605 31.5644 57.643 30.6579C55.6254 29.7223 54.0172 28.4065 52.8184 26.7106C51.6488 25.0147 50.9617 23.0556 50.757 20.8334H54.6605C54.8944 22.4416 55.4207 23.8304 56.2395 25C57.0582 26.1696 58.1547 27.0907 59.5289 27.7632C60.9324 28.4065 62.5553 28.7281 64.3974 28.7281C67.0289 28.7281 69.0757 28.2164 70.5377 27.193C71.9997 26.1404 72.7307 24.6638 72.7307 22.7632C72.7307 21.3889 72.3067 20.2778 71.4588 19.4299C70.6401 18.5527 69.529 17.8801 68.1254 17.4123C66.7512 16.9445 64.9675 16.5059 62.7746 16.0965H62.7307C60.4207 15.6579 58.4909 15.1608 56.9412 14.6053C55.4207 14.0497 54.1927 13.2603 53.257 12.2369C52.3213 11.2135 51.8535 9.88306 51.8535 8.24563C51.8535 6.57896 52.3359 5.13159 53.3009 3.90351C54.295 2.6462 55.6547 1.68129 57.3798 1.00877C59.1342 0.336257 61.1225 0 63.3447 0C65.8886 0 68.1108 0.453217 70.0114 1.35965C71.9412 2.23685 73.4617 3.49416 74.5728 5.13159C75.6839 6.76901 76.3272 8.71346 76.5026 10.9649H72.4237C72.1605 8.56726 71.2395 6.69591 69.6605 5.35088C68.0816 4.00585 66.0202 3.33334 63.4763 3.33334C61.8681 3.33334 60.45 3.58188 59.2219 4.07895C58.0231 4.57603 57.0874 5.29241 56.4149 6.22808C55.7424 7.13451 55.4061 8.20177 55.4061 9.42984C55.4061 10.7456 55.8155 11.8129 56.6342 12.6316C57.4529 13.4211 58.5786 14.0497 60.0114 14.5176C61.4441 14.9562 63.4325 15.4386 65.9763 15.9649C66.0933 15.9942 66.1956 16.0234 66.2833 16.0527C66.371 16.0527 66.4588 16.0673 66.5465 16.0965C66.605 16.1258 66.6634 16.1404 66.7219 16.1404C66.7804 16.1404 66.8389 16.155 66.8974 16.1842C68.9442 16.5936 70.6254 17.0614 71.9412 17.5877C73.2863 18.0848 74.3828 18.8451 75.2307 19.8685C76.1079 20.8626 76.5465 22.1784 76.5465 23.8158C76.5465 25.4825 76.0494 26.9445 75.0553 28.2018C74.0904 29.4299 72.7015 30.3802 70.8886 31.0527C69.105 31.696 67.0143 32.0176 64.6167 32.0176Z" fill="#BD9774"></path><path d="M0 0.657894V31.3597H20.1316V27.5439H3.94737V0.657894H0Z" fill="#BD9774"></path><path d="M26.9412 0.657894V31.3597H47.3798V27.8509H30.8447V16.4474H41.5026V15.5702H30.8447V4.16667H45.6693V0.657894H26.9412Z" fill="#BD9774"></path><path fill-rule="evenodd" clip-rule="evenodd" d="M146.613 0.657894V31.3597H150.517V18.2018H155.692C155.867 18.2018 156.028 18.1872 156.174 18.1579L166.525 31.3597H171.043L160.429 17.807C162.885 17.3684 164.8 16.4182 166.174 14.9562C167.549 13.4942 168.236 11.6521 168.236 9.42984C168.236 6.71054 167.183 4.57603 165.078 3.02632C163.002 1.44737 160.136 0.657894 156.482 0.657894H146.613ZM162.096 15.5702C160.634 16.7398 158.631 17.3246 156.087 17.3246H150.517V4.16667H156.087C158.631 4.16667 160.634 4.75147 162.096 5.92106C163.558 7.09065 164.289 8.69884 164.289 10.7456C164.289 12.7632 163.558 14.3714 162.096 15.5702Z" fill="#BD9774"></path><path d="M79.4565 31.3596L91.9126 0.657824H97.0442L109.5 31.3596H105.334L101.474 21.8859L101.123 21.0526L94.4565 4.78064L87.7459 21.0526L87.3951 21.8859L83.5354 31.3596H79.4565Z" fill="#BD9774"></path><path d="M110.981 31.3596L123.437 0.657824H128.568L141.025 31.3596H136.858L132.998 21.8859L132.647 21.0526L125.981 4.78064L119.27 21.0526L118.919 21.8859L115.06 31.3596H110.981Z" fill="#BD9774"></path><path d="M45 49.9997L47.595 43.6035H48.6641L51.2591 49.9997H50.3911L49.587 48.026H46.6539L45.8498 49.9997H45ZM46.727 47.8524H49.5139L48.125 44.4624L46.727 47.8524Z" fill="white"></path><path d="M59.9864 49.9997V44.3985H57.5102V43.6035H63.2759V44.3985H60.8088V49.9997H59.9864Z" fill="white"></path><path d="M70.9761 49.9997V43.6035H74.8778V44.3345H71.7893V46.7102H74.0097V46.893H71.7893V49.2687H75.2341V49.9997H70.9761Z" fill="white"></path><path d="M83.0832 49.9997V43.6035H83.9056V49.2048H87.2773V49.9997H83.0832Z" fill="white"></path><path d="M95.0922 49.9997V43.6035H95.9145V49.9997H95.0922Z" fill="white"></path><path d="M104.487 49.9997V43.6035H108.388V44.3345H105.3V46.7102H107.52V46.893H105.3V49.2687H108.745V49.9997H104.487Z" fill="white"></path><path d="M116.594 49.9997V43.6035H118.65C119.411 43.6035 120.008 43.768 120.441 44.0969C120.879 44.4198 121.098 44.8645 121.098 45.431C121.098 45.894 120.955 46.2777 120.669 46.5823C120.383 46.8869 119.984 47.0849 119.472 47.1763L121.683 49.9997H120.742L118.586 47.2494C118.555 47.2554 118.522 47.2585 118.485 47.2585C118.455 47.2585 118.424 47.2585 118.394 47.2585H117.407V49.9997H116.594ZM118.567 47.0757C119.097 47.0757 119.515 46.9539 119.819 46.7102C120.124 46.4605 120.276 46.1254 120.276 45.7051C120.276 45.2787 120.124 44.9437 119.819 44.7C119.515 44.4563 119.097 44.3345 118.567 44.3345H117.407V47.0757H118.567Z" fill="white"></path></g><defs><clipPath id="clip0_430_312"><rect width="171.043" height="50" fill="white"></rect></clipPath></defs></svg>